<svg height="512pt" viewBox="0 -96 512 512" width="512pt" xmlns="http://www.w3.org/2000/svg"><path d="m482 110h-10v-45c0-22.058594-17.949219-40-40-40-7.710938 0-14.921875 2.191406-21.03125 5.988281-4.089844-17.738281-20.019531-30.988281-38.96875-30.988281h-.011719c-22.046875 0-40 17.941406-40 40v70h-151.976562v-70c0-22.058594-17.953125-40-40.011719-40-18.949219 0-34.878906 13.25-38.96875 30.988281-6.109375-3.796875-13.320312-5.988281-21.03125-5.988281-22.050781 0-40 17.941406-40 40v45h-10c-16.539062 0-30 13.460938-30 30v40c0 16.539062 13.460938 30 30 30h10v45c0 22.058594 17.949219 40 40 40 7.710938 0 14.921875-2.191406 21.03125-5.988281 4.089844 17.738281 20.019531 30.988281 38.96875 30.988281h.011719c22.046875 0 40-17.941406 40-40v-70h151.976562v70c0 22.058594 17.953125 40 40.011719 40 18.949219 0 34.878906-13.25 38.96875-30.988281 6.109375 3.796875 13.320312 5.988281 21.03125 5.988281 22.050781 0 40-17.941406 40-40v-45h10c16.539062 0 30-13.460938 30-30v-40c0-16.539062-13.460938-30-30-30zm-442 80h-10c-5.511719 0-10-4.488281-10-10v-40c0-5.511719 4.488281-10 10-10h10zm60 65c0 5.519531-2.238281 10.519531-5.859375 14.140625s-8.621094 5.859375-14.140625 5.859375c-11.03125 0-20-8.96875-20-20v-190c0-11.03125 8.96875-20 20-20s20 8.96875 20 20zm60.011719 25c0 11.03125-8.980469 20-20 20h-.011719c-11.019531 0-20-8.96875-20-20v-240c0-11.03125 8.980469-20 20.011719-20 11.019531 0 20 8.96875 20 20zm171.917969-130h-69.929688c-5.519531 0-10 4.480469-10 10s4.480469 10 10 10h69.929688v20h-151.96875v-60h151.96875zm60.070312 130c0 11.03125-8.980469 20-20.011719 20-11.019531 0-20-8.96875-20-20v-119.488281c-.007812.21875-.027343.4375-.058593.648437v-2.320312c.03125.210937.050781.429687.058593.648437v-119.488281c0-11.03125 8.980469-20 20-20h.011719c11.019531 0 20 8.96875 20 20zm60-25c0 11.03125-8.96875 20-20 20s-20-8.96875-20-20v-190c0-11.03125 8.96875-20 20-20s20 8.96875 20 20zm40-75c0 5.511719-4.488281 10-10 10h-10v-60h10c5.511719 0 10 4.488281 10 10zm0 0"/><path d="m222.019531 170c-5.523437 0-10.003906-4.476562-10.003906-10s4.472656-10 9.996094-10h.007812c5.523438 0 10 4.476562 10 10s-4.476562 10-10 10zm0 0"/></svg>