<?xml version="1.0" encoding="iso-8859-1"?>
<!-- Generator: Adobe Illustrator 19.0.0, SVG Export Plug-In . SVG Version: 6.00 Build 0)  -->
<svg version="1.1" id="Capa_1" xmlns="http://www.w3.org/2000/svg" xmlns:xlink="http://www.w3.org/1999/xlink" x="0px" y="0px"
	 viewBox="0 0 512 512" style="enable-background:new 0 0 512 512;" xml:space="preserve">
<g>
	<g>
		<path d="M504.5,497h-24.564V393.912c4.909-4.316,8.016-10.635,8.016-17.67c0-12.976-10.557-23.532-23.532-23.532h-49.067
			l-7.577-121.226c-0.247-3.953-3.525-7.032-7.485-7.032h-32.065c-3.96,0-7.238,3.079-7.485,7.032l-7.577,121.226h-17.973
			l-7.577-121.226c-0.247-3.953-3.525-7.032-7.485-7.032h-32.064c-3.96,0-7.238,3.079-7.485,7.032l-7.577,121.226H255.03
			l-7.577-121.226c-0.247-3.953-3.525-7.032-7.485-7.032h-32.064c-3.96,0-7.238,3.079-7.485,7.032l-7.577,121.226h-20.89
			l-4.646-209.102c-0.09-4.076-3.421-7.333-7.498-7.333h-48.097c-4.077,0-7.408,3.257-7.498,7.333l-5.359,241.167h-59.29
			c-12.976,0-23.532,10.557-23.532,23.532c0,7.035,3.107,13.354,8.016,17.67V497H7.5c-4.142,0-7.5,3.358-7.5,7.5
			c0,4.142,3.358,7.5,7.5,7.5h497c4.142,0,7.5-3.358,7.5-7.5C512,500.358,508.642,497,504.5,497z M98.139,416.84H71.632
			c-4.142,0-7.5,3.358-7.5,7.5c0,4.142,3.358,7.5,7.5,7.5h26.174L96.358,497h-57.31v-65.174c0.172,0.004,0.343,0.013,0.516,0.013
			c4.142,0,7.5-3.358,7.5-7.5c0-4.142-3.358-7.5-7.5-7.5c-4.705,0-8.532-3.828-8.532-8.532c0-4.705,3.828-8.532,8.532-8.532h58.954
			L98.139,416.84z M375.271,239.452h17.973l7.079,113.258h-32.13L375.271,239.452z M295.11,239.452h17.973l7.079,113.258h-32.13
			L295.11,239.452z M214.949,239.452h17.973L240,352.71h-32.13L214.949,239.452z M128.259,497h-16.896l7.681-345.726h33.427
			l4.477,201.436h-13.173c-12.976,0-23.533,10.557-23.533,23.532c0,7.035,3.107,13.354,8.017,17.67V497z M464.42,384.774h-16.032
			c-4.142,0-7.5,3.358-7.5,7.5c0,4.142,3.358,7.5,7.5,7.5h16.032c0.173,0,0.344-0.01,0.516-0.013V497H143.258v-97.239
			c0.172,0.004,0.343,0.013,0.516,0.013h272.555c4.142,0,7.5-3.358,7.5-7.5c0-4.142-3.358-7.5-7.5-7.5H143.774
			c-4.705,0-8.533-3.828-8.533-8.532c0-4.704,3.828-8.532,8.533-8.532h320.645c4.705,0,8.533,3.827,8.533,8.532
			C472.952,380.947,469.124,384.774,464.42,384.774z"/>
	</g>
</g>
<g>
	<g>
		<path d="M416.323,0c-22.594,0-44.134,7.885-61.353,22.334c-12.362-9.276-27.344-14.318-42.857-14.318
			c-18.832,0-36.81,7.435-50.173,20.58c-6.927-2.987-14.42-4.548-21.972-4.548c-22.298,0-42.175,13.351-50.899,33.332
			c-3.01-0.843-6.092-1.268-9.222-1.268c-15.493,0-28.816,10.075-33.575,24.188c-0.829-0.092-1.663-0.139-2.498-0.139
			c-12.976,0-23.533,10.557-23.533,23.532c0.001,4.143,3.359,7.501,7.501,7.501s7.5-3.358,7.5-7.5c0-4.705,3.828-8.532,8.533-8.532
			c1.488,0,2.947,0.421,4.335,1.252c2.248,1.345,5.034,1.419,7.351,0.198c2.316-1.222,3.828-3.564,3.986-6.179
			c0.657-10.833,9.618-19.319,20.399-19.319c3.409,0,6.774,0.921,10,2.738c2.021,1.139,4.458,1.277,6.597,0.374
			c2.139-0.903,3.738-2.745,4.333-4.989c4.709-17.774,20.825-30.188,39.191-30.188c6.96,0,13.855,1.82,19.939,5.262
			c3.11,1.76,7.033,1.081,9.369-1.625c10.796-12.5,26.41-19.669,42.837-19.669c14.045,0,27.549,5.243,38.023,14.762
			c2.923,2.656,7.405,2.591,10.249-0.15C375.524,23.036,395.39,15,416.323,15C460.809,15,497,51.192,497,95.677
			s-36.191,80.677-80.677,80.677c-29.535,0-56.686-16.126-70.857-42.085c-1.89-3.462-6.139-4.868-9.721-3.218
			c-7.522,3.465-15.473,5.222-23.632,5.222c-16.427,0-32.041-7.169-42.837-19.669c-2.336-2.705-6.258-3.385-9.369-1.625
			c-6.084,3.442-12.979,5.262-19.939,5.262c-12.674,0-24.402-5.803-32.175-15.921c-1.412-1.837-3.593-2.919-5.91-2.931
			c-0.013,0-0.025,0-0.037,0c-2.303,0-4.48,1.059-5.902,2.872c-3.968,5.061-9.835,7.963-16.097,7.963c-4.142,0-7.5,3.358-7.5,7.5
			c0,4.142,3.358,7.5,7.5,7.5c7.949,0,15.509-2.656,21.669-7.474c10.291,9.928,23.913,15.49,38.452,15.49
			c7.552,0,15.045-1.561,21.972-4.547c13.363,13.145,31.342,20.58,50.173,20.58c8.083,0,15.997-1.357,23.607-4.04
			c17.524,27.375,47.824,44.121,80.603,44.121c52.757,0,95.677-42.921,95.677-95.677C512,42.921,469.08,0,416.323,0z"/>
	</g>
</g>
<g>
	<g>
		<path d="M191.871,416.839c-4.142,0-7.5,3.358-7.5,7.5v16.032c0,4.142,3.358,7.5,7.5,7.5c4.142,0,7.5-3.358,7.5-7.5v-16.032
			C199.371,420.197,196.013,416.839,191.871,416.839z"/>
	</g>
</g>
<g>
	<g>
		<path d="M223.936,416.839c-4.142,0-7.5,3.358-7.5,7.5v16.032c0,4.142,3.358,7.5,7.5,7.5c4.142,0,7.5-3.358,7.5-7.5v-16.032
			C231.436,420.197,228.078,416.839,223.936,416.839z"/>
	</g>
</g>
<g>
	<g>
		<path d="M256,416.839c-4.142,0-7.5,3.358-7.5,7.5v16.032c0,4.142,3.358,7.5,7.5,7.5c4.142,0,7.5-3.358,7.5-7.5v-16.032
			C263.5,420.197,260.142,416.839,256,416.839z"/>
	</g>
</g>
<g>
	<g>
		<path d="M288.064,416.839c-4.142,0-7.5,3.358-7.5,7.5v16.032c0,4.142,3.358,7.5,7.5,7.5c4.142,0,7.5-3.358,7.5-7.5v-16.032
			C295.564,420.197,292.207,416.839,288.064,416.839z"/>
	</g>
</g>
<g>
	<g>
		<path d="M320.129,416.839c-4.142,0-7.5,3.358-7.5,7.5v16.032c0,4.142,3.358,7.5,7.5,7.5c4.142,0,7.5-3.358,7.5-7.5v-16.032
			C327.629,420.197,324.271,416.839,320.129,416.839z"/>
	</g>
</g>
<g>
	<g>
		<path d="M352.193,416.839c-4.142,0-7.5,3.358-7.5,7.5v16.032c0,4.142,3.358,7.5,7.5,7.5c4.142,0,7.5-3.358,7.5-7.5v-16.032
			C359.693,420.197,356.335,416.839,352.193,416.839z"/>
	</g>
</g>
<g>
	<g>
		<path d="M384.258,416.839c-4.142,0-7.5,3.358-7.5,7.5v16.032c0,4.142,3.358,7.5,7.5,7.5c4.142,0,7.5-3.358,7.5-7.5v-16.032
			C391.758,420.197,388.4,416.839,384.258,416.839z"/>
	</g>
</g>
<g>
	<g>
		<path d="M416.323,416.839c-4.142,0-7.5,3.358-7.5,7.5v16.032c0,4.142,3.358,7.5,7.5,7.5c4.142,0,7.5-3.358,7.5-7.5v-16.032
			C423.823,420.197,420.465,416.839,416.323,416.839z"/>
	</g>
</g>
<g>
</g>
<g>
</g>
<g>
</g>
<g>
</g>
<g>
</g>
<g>
</g>
<g>
</g>
<g>
</g>
<g>
</g>
<g>
</g>
<g>
</g>
<g>
</g>
<g>
</g>
<g>
</g>
<g>
</g>
</svg>
