<svg enable-background="new 0 0 36 36" height="512" viewBox="0 0 36 36" width="512" xmlns="http://www.w3.org/2000/svg"><path d="m4.167 27.623c0-6.917-3.583-11.667-3.583-15s1.916-10.333 17.249-10.333 17.583 9.417 17.583 13.083c.001 17.167-31.249 24.5-31.249 12.25z" fill="#efefef"/><g fill="#a4afc1"><path d="m5.625 6.125h2v1h-2z"/><path d="m11.375 6.125h2v1h-2z"/><path d="m8.875 8.625h1v2h-1z"/><path d="m8.875 2.875h1v2h-1z"/></g><path d="m14 26.25c0 1.66 1.34 3 3 3s3-1.34 3-3z" fill="#2fdf84"/><path d="m23.25 16v2.788c0 2.196.967 4.28 2.644 5.697l.001.001.005.004c.21.18.35.45.35.76 0 .55-.45 1-1 1h-8-8.5c-.55 0-1-.45-1-1 0-.31.14-.58.35-.76l.005-.004.001-.001c1.677-1.417 2.644-3.502 2.644-5.697v-2.788c0-3.452 2.798-6.25 6.25-6.25s6.25 2.798 6.25 6.25z" fill="#f3f3f1"/><path d="m10 25.25c0-.31.14-.58.35-.76l.005-.004.001-.001c1.677-1.417 2.644-3.502 2.644-5.697v-2.788c0-3.067 2.211-5.613 5.125-6.144-.365-.066-.74-.106-1.125-.106-3.452 0-6.25 2.798-6.25 6.25v2.788c0 2.196-.967 4.28-2.644 5.697l-.001.001-.005.004c-.21.18-.35.45-.35.76 0 .55.45 1 1 1h2.25c-.55 0-1-.45-1-1z" fill="#d5dbe1"/><circle cx="24" cy="11" fill="#2fdf84" r="4.25"/><path d="m22 11c0-1.955 1.328-3.585 3.125-4.08-.361-.1-.733-.17-1.125-.17-2.347 0-4.25 1.903-4.25 4.25s1.903 4.25 4.25 4.25c.392 0 .764-.07 1.125-.17-1.797-.495-3.125-2.125-3.125-4.08z" fill="#00b871"/><path d="m17 30c-2.067 0-3.75-1.682-3.75-3.75h1.5c0 1.241 1.01 2.25 2.25 2.25s2.25-1.009 2.25-2.25h1.5c0 2.068-1.683 3.75-3.75 3.75z"/><path d="m25.25 27h-16.5c-.965 0-1.75-.785-1.75-1.75 0-.512.224-.996.613-1.33.024-.021.05-.04.076-.058 1.47-1.281 2.311-3.125 2.311-5.072v-2.79c0-3.86 3.141-7 7-7 .16 0 .333.003.493.03l-.246 1.479c-.08-.013-.168-.011-.247-.01-3.032 0-5.5 2.467-5.5 5.5v2.79c0 2.417-1.059 4.703-2.904 6.271-.013.011-.026.022-.041.033-.028.035-.055.087-.055.157 0 .136.114.25.25.25h16.5c.136 0 .25-.114.25-.25 0-.071-.027-.123-.055-.157-.014-.01-.027-.021-.04-.032-1.847-1.57-2.905-3.855-2.905-6.271v-1.09h1.5v1.09c0 1.948.843 3.793 2.314 5.075.025.017.05.035.073.055.39.333.613.818.613 1.33 0 .965-.785 1.75-1.75 1.75z"/><path d="m24 16c-2.757 0-5-2.243-5-5s2.243-5 5-5 5 2.243 5 5-2.243 5-5 5zm0-8.5c-1.93 0-3.5 1.57-3.5 3.5s1.57 3.5 3.5 3.5 3.5-1.57 3.5-3.5-1.571-3.5-3.5-3.5z"/></svg>