<?xml version="1.0" encoding="iso-8859-1"?>
<!-- Generator: Adobe Illustrator 19.0.0, SVG Export Plug-In . SVG Version: 6.00 Build 0)  -->
<svg version="1.1" id="Capa_1" xmlns="http://www.w3.org/2000/svg" xmlns:xlink="http://www.w3.org/1999/xlink" x="0px" y="0px"
	 viewBox="0 0 512 512" style="enable-background:new 0 0 512 512;" xml:space="preserve">
<g>
	<g>
		<path d="M390.869,40.864C367.573,13.76,326.901,0,270.069,0H127.605c-18.048,0-33.152,13.088-35.968,31.136l-59.328,384
			c-1.248,8.288,1.152,16.672,6.592,23.008C44.245,444.416,52.053,448,60.245,448h101.664l23.52-152.384
			c0.48-2.144,2.24-3.68,4.224-3.68h41.792c101.568,0,162.464-48.96,180.864-145.472l1.632-9.248
			C420.021,95.52,413.141,66.72,390.869,40.864z M382.325,132.224l-1.44,8.16c-15.328,80.416-64.192,119.52-149.408,119.52h-41.792
			c-16.48,0-30.528,10.976-34.944,26.656l-0.256-0.064l-0.672,4.384c-0.032,0.032-0.032,0.064-0.032,0.128L134.485,416h-69.92
			l58.688-379.968c0.352-2.336,2.176-4.032,4.352-4.032h142.432c47.104,0,79.616,9.984,96.608,29.728
			C382.645,80.32,386.997,100.192,382.325,132.224z"/>
	</g>
</g>
<g>
	<g>
		<rect x="231.63" y="339.194" transform="matrix(0.1425 -0.9898 0.9898 0.1425 -151.0119 536.079)" width="4.512" height="32"/>
	</g>
</g>
<g>
	<g>
		<path d="M454.901,104.672c-12.608-14.464-30.4-25.248-52.896-32l-9.184,30.656c16.608,4.992,29.376,12.512,37.888,22.304
			c15.84,18.432,20.32,38.912,15.584,70.432c0,0-0.864,5.152-1.568,8.32c-15.168,80.384-64,119.456-149.376,119.456h-41.6
			c-17.92,0-33.056,13.056-35.968,31.168L198.453,480h-70.016l7.04-45.568l-31.616-4.864l-7.744,50.048
			c-1.024,8.32,1.536,16.64,7.008,22.848c5.376,6.08,13.024,9.536,21.024,9.536h101.728l23.488-152
			c0.352-2.08,1.952-4.16,4.384-4.16h41.6c101.792,0,162.624-48.96,180.672-144.928c0.736-3.168,1.824-9.536,1.856-9.824
			C484.053,160.096,476.981,130.4,454.901,104.672z"/>
	</g>
</g>
<g>
</g>
<g>
</g>
<g>
</g>
<g>
</g>
<g>
</g>
<g>
</g>
<g>
</g>
<g>
</g>
<g>
</g>
<g>
</g>
<g>
</g>
<g>
</g>
<g>
</g>
<g>
</g>
<g>
</g>
</svg>
